<svg xmlns="http://www.w3.org/2000/svg" viewBox="0 0 100 100" style="fill:none;stroke:#000000;">
<path  d="M48.537,60.436l-5.279,4.876 c0,0-0.228,0.178-0.54,0.186c-0.106,0.008-0.221-0.008-0.335-0.062l1.483-8.947"/>
<path d="M37.75,53.357c0,0,3.913,10.95,3.992,11.143 c0.372,0.91,0.641,0.936,0.641,0.936l1.483-8.947"/>
<path d="M64.375,34.5 c-0.73,0-1.575,0.372-1.575,0.372L29.938,48.177c0,0-1.438,0.465-1.438,1.45c0,1.179,1.392,1.59,1.392,1.59l7.858,2.132l0.007,0.004 l20.503-12.69c0.143-0.11,0.31-0.164,0.475-0.163c0.229,0.001,0.454,0.107,0.605,0.31c0.107,0.141,0.159,0.309,0.16,0.476 c0,0.236-0.104,0.471-0.304,0.625L43.869,56.487l0.005,0.003l12.506,10.584c0,0,0.456,0.426,1.346,0.426 c1.673,0,1.917-1.372,1.917-1.372s5.791-29.983,5.828-30.253c0.017-0.123,0.029-0.254,0.029-0.375C65.5,34.875,65,34.5,64.375,34.5z "/>
</svg>