<svg viewBox="0 0 100 100" width="100px" height="100px">
    <path d="M95.12 25.04c-.8-.12-1.54.42-1.67 1.21l-8.77 55.1-.01.1c0 .04-.44 4.38-3.36 5.07-3.18.75-9.26-2.94-10.56-3.98-.24-.18-.99-.67-2.67-1.77-4.88-3.19-16.32-10.67-21.04-14.65-1.83-1.48-2.03-3.5.27-5.36a902.06 902.06 0 0 0 24.77-23.59c1.23-1.23 4.07-4.88 2.4-6.9-1.43-1.72-4.43-.77-10.36 3.26l-33.2 22.36c-1.55 1.1.01 3.46 1.63 2.42.35.49 48.06-34.25 37.47-23.2A897.88 897.88 0 0 1 45.37 58.6c-3.47 2.94-3.6 6.83-.21 9.74C50 72.44 61.14 79.71 66.49 83.21c1.25.82 2.34 1.52 2.47 1.62 1.08.87 6.89 4.7 11.47 4.69 5.54.15 7.1-6.4 7.13-7.75l8.76-55.06c.13-.8-.4-1.54-1.2-1.67z"/>
    <path d="M95.45 11.56c-2.83-2.13-7.25-.5-7.77-.3-12.3 5.1-64.12 26.56-78.6 32.48-6.56 2.31-8.67 6.78-4.24 9.88l.3.15c.08.02 8.34 2.85 15.35 4.96 1.85.5 2.66-2.2.84-2.79a484.04 484.04 0 0 1-15.06-4.86c-2.1-1.6 0-3 3.9-4.64 14.66-6 66.1-27.3 78.59-32.48 2.41-.82 6.42-1.48 5.8 3.23a1.45 1.45 0 0 0 2.9.25c.23-2.72-.44-4.7-2.01-5.88z"/>
</svg>
