<svg xmlns="http://www.w3.org/2000/svg" xml:space="preserve" viewBox="0 0 192 210.04">
  <path d="M148.86 121.97 124.28 106a11.99 11.99 0 0 0-16.6 3.52l-1.16 1.78c-10.64-3.51-22.37-8-29.4-28.34l2.91-2.53a12.02 12.02 0 0 0 1.18-16.93L61.97 41.37a4 4 0 0 0-5.64-.39l-12.07 10.5c-10.6 9.2-5.65 22.82-4.02 27.3.07.2.16.4.26.58a182.8 182.8 0 0 0 26.65 35.14c16.26 16.57 45.61 31.86 46.51 32.3a20.01 20.01 0 0 0 27.66-5.88l8.72-13.41a4 4 0 0 0-1.18-5.54zm-14.24 14.6c-3.6 5.55-11.05 7.13-16.94 3.33-.29-.15-29.45-15.34-44.82-31a178.74 178.74 0 0 1-25.21-33.16c-3.17-8.88-2.61-14.35 1.85-18.22l9.06-7.88 16.6 19.11a3.96 3.96 0 0 1-.38 5.64l-4.9 4.27a4 4 0 0 0-1.2 4.2c8.36 27.19 24.64 32.53 36.52 36.43l1.73.57a3.98 3.98 0 0 0 4.62-1.61l2.83-4.37a3.96 3.96 0 0 1 5.54-1.17l21.23 13.8-6.53 10.06zM105.13 64.99a4 4 0 0 0-2.2 7.7 18.1 18.1 0 0 1 12.4 12.41 4 4 0 0 0 7.7-2.17 26.15 26.15 0 0 0-17.9-17.94z"/>
  <path d="M135.57 88.87a4 4 0 0 0 3.85-5.09 50.8 50.8 0 0 0-34.75-34.83 4 4 0 1 0-2.2 7.7 42.74 42.74 0 0 1 29.25 29.31 4 4 0 0 0 3.85 2.91z"/>
  <path d="M102.94 30.33a4 4 0 0 0-2.2 7.7 72.4 72.4 0 0 1 49.56 49.66 4 4 0 0 0 7.7-2.17 80.47 80.47 0 0 0-55.06-55.2z"/>
</svg>
