<svg width="16" height="17" fill="none">
    <path fill="#222" d="M7.6.8c-1.3 0-4 .2-5.5 1.6C.9 3.6.5 5.2.5 7.3c0 2-.1 5.9 3.6 7v1.5s0 .7.4.8c.5.2.8-.3 1.3-.8l1-1c2.5.1 4.4-.4 4.7-.4.5-.2 3.4-.6 3.9-4.4.5-4-.3-6.5-1.6-7.7-.4-.3-2-1.5-5.5-1.5h-.7Zm0 1.1h.6c3 0 4.5 1 4.8 1.2 1 1 1.7 3.3 1.2 6.6-.3 3.2-2.7 3.4-3.1 3.5-.2.1-2 .5-4.1.4 0 0-1.6 2-2.1 2.4l-.2.1-.2-.2v-2.7c-3-.9-2.9-4.2-2.9-5.9 0-1.7.4-3 1.4-4C4.2 2 6.6 1.9 7.6 1.9ZM8 3.6a.2.2 0 0 0-.2.2c0 .1 0 .2.2.2a3.7 3.7 0 0 1 2.6 1c.8.8 1.1 1.7 1.1 3l.2.1A.2.2 0 0 0 12 8a4.3 4.3 0 0 0-1.2-3.1 4 4 0 0 0-3-1.2Zm-2.6.5h-.4l-.8.7-.3.6v.4l.8 1.7c.5.8 1 1.5 1.6 2v.1a10.2 10.2 0 0 0 3.9 2.4h.2c.3 0 .6 0 .8-.3l.6-.7c.1-.3 0-.6-.1-.8l-1.5-1c-.3-.2-.6 0-.8.1l-.3.4c-.1.2-.4.2-.4.2C6.6 9.3 6 7.3 6 7.3l.1-.5.4-.3c.2-.1.3-.5.1-.8a9 9 0 0 0-1-1.4L5.3 4Zm3 .6c-.3 0-.3.4 0 .4a2.5 2.5 0 0 1 1.7.7 2.3 2.3 0 0 1 .6 1.7.2.2 0 0 0 .2.2.2.2 0 0 0 .2-.2c0-.7-.3-1.4-.7-2-.5-.5-1.2-.8-2-.8Zm.3 1c-.3 0-.3.4 0 .5.6 0 1 .3 1 1a.2.2 0 0 0 .1.2.2.2 0 0 0 .2-.2c0-1-.5-1.4-1.3-1.5Z"/>
</svg>
