<svg viewBox="0 0 100 100" width="100px" height="100px">
    <path d="M91.3 71.1c-3.37-2.7-6.92-5.23-10.44-7.66-7.07-5-13.27-4.48-18 2.62-1.87 2.85-4.4 3.42-7.97 1.8-1.7-.74-2.84 1.79-1.17 2.58 4.86 2.2 8.83 1.23 11.5-2.82 3.9-5.8 8.17-5.9 14.02-1.86 3.5 2.4 7.02 4.92 10.34 7.59 3.89 2.97 6.19 5.02 4.57 9.6-2.46 6.64-10.78 13.48-17.32 12.5C43.66 83.49 19.73 59 6.86 27.68c-4.07-9.8.2-18.2 10.29-21.5a7.12 7.12 0 0 1 4.89 0c4.05 1.49 15.6 17.26 15.84 21.63.17 2.98-1.9 4.64-4.24 6.22-4.81 3.27-5.88 7.74-3.25 13.65a43.29 43.29 0 0 0 16.92 19.34c1.6.96 3.06-1.38 1.5-2.4a40.52 40.52 0 0 1-15.83-18.09c-5.15-11.34 8.1-9 7.73-18.88C40.4 22.1 28.17 5.41 23 3.51 15.96.91 6.26 7.93 3.97 13.59c-2.05 4.45-1.95 9.7.27 15.14 12.79 31.41 35.65 54.38 67.95 68.3 9.72 4.93 21.44-4.6 24.63-13.14 2.39-6.75-2-10.1-5.52-12.8zM52.45 9.4C75.38 12.16 86.91 24.1 88.92 47.2c.02 1.83.08 5.22 3.83 5.3 3.42.14 4.22-2.9 3.92-5.6 0-1.13-.01-2.4-1.43-2.48a1.42 1.42 0 0 0-1.43 1.4c-.04 1.02.27 3.02-.21 3.68-.11.11-.41.19-.8.17-.74-.02-1.02-.02-1.06-2.51-2.03-24.77-14.49-37.7-39.08-40.6-2.17-.16-2.16-.35-2.13-.78.03-.54.15-.92.33-1.08.77-.5 2.62-.01 3.64-.17 19.68.73 37.22 17.47 39.14 37.38.2 1.84 2.97 1.6 2.82-.27C94.36 19.9 74.74 1.64 53.13 1.7c-2.59-.37-5.35.58-5.43 3.93-.19 3.4 3.15 3.65 4.75 3.76z"/>
    <path d="M57.46 12.9c-1.94-.33-5.56-.93-6.23 3.07-.64 3.28 2.06 4.6 4.72 4.78C69.8 23.33 75.38 28.41 77.5 42.2c.15 3.16.51 6.5 4.76 5.88 3.87-.8 2.86-4.02 3.06-6.11.16-14.53-12.57-27.64-27.85-29.07zm24.36 32.38c-.58.08-.9.02-1-.06-2.22-16.67-7.04-24.08-24.49-27.27-.83-.12-1.98-.27-2.25-.64-.1-.15-.13-.46-.06-.87.1-.63.22-.96 1.14-.96 15.03.53 28.3 13.36 27.3 27.84.07 1.85-.11 1.88-.64 1.96z"/>
    <path d="M59.53 24.07c-1.25.04-3.86.1-4.76 2.73-1.13 2.97 1.1 4.8 3.75 5.05 5.12.83 7.75 3.66 8.28 8.91.2 2.31 1.94 4.24 4.25 3.94 3.66-.44 3.53-4.15 3.48-5.3.37-6.84-8.06-15.72-15-15.33zM70.72 41.9c-.74.06-1-.66-1.1-1.4-.66-6.56-4.24-10.4-10.65-11.43-1.74-.37-1.82-.35-1.53-1.34.2-.54.53-.78 2.17-.82 5.37-.33 12.46 7.22 12.1 12.54.08 2.32-.46 2.39-.99 2.45z"/>
</svg>
