<svg width="14" height="14" fill="none">
  <path fill="#222" d="M11.7 2.3A6.5 6.5 0 0 0 7 .4a6.6 6.6 0 0 0-5.6 9.8l-1 3.4 3.5-1a6.5 6.5 0 0 0 7.8-10.3ZM7 12.3c-1 0-2-.2-2.7-.7l-.2-.1L2 12l.5-2v-.2A5.5 5.5 0 0 1 7 1.5a5.4 5.4 0 0 1 5 3.4c.3.6.5 1.3.5 2 0 3-2.5 5.5-5.5 5.5Zm3-4L9 7.8c-.2 0-.3-.1-.4 0 0 .2-.4.6-.5.7h-.3c-.2 0-.7-.2-1.4-.8a5 5 0 0 1-.9-1.1l.1-.3.2-.3.2-.3v-.3l-.5-1.2c-.1-.3-.3-.3-.4-.3h-.3c-.1 0-.3 0-.4.2-.2.2-.6.6-.6 1.4 0 .8.6 1.6.7 1.7 0 0 1.1 1.7 2.8 2.4l.9.4h1c.3 0 1-.3 1.1-.7.2-.4.2-.7.1-.8l-.3-.2Z"/>
</svg>
