<svg viewBox="0 0 100 100" width="100px" height="100px">
  <path d="M83.42 16.4C44.48-21.44-16.82 24.9 9.09 72.64l-6.33 23.1c-.3.99.7 2 1.69 1.7l23.68-6.2c47.52 24.65 92.78-36.6 55.29-74.84zm-33.3 77.54c-7.38 0-14.7-1.87-21.16-5.4a1.4 1.4 0 0 0-1.01-.12L6.06 94.16l5.85-21.34c.1-.35.05-.73-.14-1.05-17.07-29 4.68-66.69 38.37-66.4 23.81-.47 44.78 20.5 44.28 44.3a44.34 44.34 0 0 1-44.3 44.27z"/>
  <path d="M41.69 44.5c.82-.9 1.47-1.88 1.89-2.86.76-1.52.11-2.81-.1-3.23-.79-1.85-2.7-6.71-3.5-8.43-1.1-2.47-2.52-2.73-3.76-2.78-2.36.02-4.07-.53-6.52 2.08-1.24 1.32-4.14 4.42-4.14 10.22.06 5.74 3.48 10.63 5.14 12.93C36.35 60.8 43.4 66.98 50.58 69.8c6.62 2.6 9.8 3.14 11.85 3.14.98 0 1.63-.12 2.47-.2 1.3-.12 3.18-.88 4.9-2a1.38 1.38 0 1 0-1.5-2.32c-1.97 1.2-2.96 1.54-4.29 1.64-1.8.2-4.03.47-12.42-2.84-6.75-2.62-13.6-8.79-18.9-16.77-3.97-5.15-6.9-13.45-.97-19.29 1.51-1.74 2.76-1.14 4.38-1.2.61.02.86.03 1.37 1.15.69 1.5 2.9 7.07 3.54 8.52.3.63.1.68-.07 1.1-.55 1.2-1.61 2.27-2.43 3.2-.52.53-1.93 1.93-.72 4 .86 1.47 3.2 5.2 6.62 8.24 3.82 3.4 7.18 4.86 8.8 5.56 1.24.46 2.75 1.8 4.81-.3.58-.66 2.88-3.36 3.72-4.62.25-.4.31-.23.95-.04 1.48.59 7.06 3.36 9.22 4.42.06.54.01 2.2-.74 4.29-.59 1.7 1.97 2.64 2.61.92.96-2.68 1.2-5.51.55-6.6-.5-.89-1.72-1.33-2.76-1.85-.06-.04-6.66-3.31-7.94-3.78-.9-.32-2.78-1.01-4.19 1.1a66.37 66.37 0 0 1-3.5 4.34c-.27.29-.2.21-.81-.04-2.43-1.12-4.82-1.92-8.88-5.46a32.84 32.84 0 0 1-6.07-7.57c-.08-.13-.1-.2-.1-.2.5-.6 1.08-1.16 1.6-1.85z"/>
</svg>
